<mxfile host="app.diagrams.net" modified="2023-04-11T22:26:18.917Z" agent="Mozilla/5.0 (Windows NT 10.0; Win64; x64) AppleWebKit/537.36 (KHTML, like Gecko) Chrome/112.0.0.0 Safari/537.36" etag="yetaSFOJtC2vdYh-GP6w" version="21.1.6" type="github">
  <diagram name="Page-1" id="Uci31hkpzFQfS-VTfb_5">
    <mxGraphModel dx="1790" dy="1927" grid="1" gridSize="10" guides="1" tooltips="1" connect="1" arrows="1" fold="1" page="1" pageScale="1" pageWidth="850" pageHeight="1100" math="0" shadow="0">
      <root>
        <mxCell id="0" />
        <mxCell id="1" parent="0" />
        <mxCell id="m83ukutckXuz09UaQkiv-2" style="edgeStyle=orthogonalEdgeStyle;rounded=0;orthogonalLoop=1;jettySize=auto;html=1;exitX=0.5;exitY=1;exitDx=0;exitDy=0;exitPerimeter=0;" edge="1" parent="1" source="m83ukutckXuz09UaQkiv-1">
          <mxGeometry relative="1" as="geometry">
            <mxPoint x="180" y="110" as="targetPoint" />
          </mxGeometry>
        </mxCell>
        <mxCell id="m83ukutckXuz09UaQkiv-19" style="edgeStyle=orthogonalEdgeStyle;rounded=0;orthogonalLoop=1;jettySize=auto;html=1;exitX=0.5;exitY=1;exitDx=0;exitDy=0;exitPerimeter=0;entryX=0.5;entryY=0;entryDx=0;entryDy=0;" edge="1" parent="1" source="m83ukutckXuz09UaQkiv-1">
          <mxGeometry relative="1" as="geometry">
            <mxPoint x="182" y="149" as="targetPoint" />
            <Array as="points">
              <mxPoint x="180" y="120" />
              <mxPoint x="180" y="140" />
              <mxPoint x="182" y="140" />
            </Array>
          </mxGeometry>
        </mxCell>
        <mxCell id="m83ukutckXuz09UaQkiv-1" value="Strat" style="strokeWidth=2;html=1;shape=mxgraph.flowchart.start_2;whiteSpace=wrap;fillColor=#d5e8d4;strokeColor=#82b366;" vertex="1" parent="1">
          <mxGeometry x="140" y="70" width="70" height="50" as="geometry" />
        </mxCell>
        <mxCell id="m83ukutckXuz09UaQkiv-12" style="edgeStyle=orthogonalEdgeStyle;rounded=0;orthogonalLoop=1;jettySize=auto;html=1;exitX=0.5;exitY=1;exitDx=0;exitDy=0;" edge="1" parent="1" source="m83ukutckXuz09UaQkiv-13">
          <mxGeometry relative="1" as="geometry">
            <mxPoint x="182" y="430" as="targetPoint" />
            <Array as="points">
              <mxPoint x="182" y="450" />
              <mxPoint x="182" y="450" />
            </Array>
          </mxGeometry>
        </mxCell>
        <mxCell id="m83ukutckXuz09UaQkiv-15" value="" style="edgeStyle=orthogonalEdgeStyle;rounded=0;orthogonalLoop=1;jettySize=auto;html=1;" edge="1" parent="1" target="m83ukutckXuz09UaQkiv-13">
          <mxGeometry relative="1" as="geometry">
            <mxPoint x="182" y="360" as="targetPoint" />
            <mxPoint x="181" y="370" as="sourcePoint" />
            <Array as="points" />
          </mxGeometry>
        </mxCell>
        <mxCell id="m83ukutckXuz09UaQkiv-13" value="Enter to motion algorithm&amp;nbsp;" style="whiteSpace=wrap;html=1;strokeWidth=2;rounded=1;arcSize=12;fillColor=#e1d5e7;strokeColor=#9673a6;" vertex="1" parent="1">
          <mxGeometry x="122" y="420" width="118" height="50" as="geometry" />
        </mxCell>
        <mxCell id="m83ukutckXuz09UaQkiv-57" value="" style="edgeStyle=orthogonalEdgeStyle;rounded=0;orthogonalLoop=1;jettySize=auto;html=1;" edge="1" parent="1" source="m83ukutckXuz09UaQkiv-10" target="m83ukutckXuz09UaQkiv-56">
          <mxGeometry relative="1" as="geometry" />
        </mxCell>
        <mxCell id="m83ukutckXuz09UaQkiv-10" value="Read joystick data&amp;nbsp;" style="shape=parallelogram;html=1;strokeWidth=2;perimeter=parallelogramPerimeter;whiteSpace=wrap;rounded=1;arcSize=12;size=0.23;fillColor=#f8cecc;strokeColor=#b85450;" vertex="1" parent="1">
          <mxGeometry x="125.5" y="240" width="100" height="60" as="geometry" />
        </mxCell>
        <mxCell id="m83ukutckXuz09UaQkiv-22" value="" style="edgeStyle=orthogonalEdgeStyle;rounded=0;orthogonalLoop=1;jettySize=auto;html=1;exitX=0.5;exitY=1;exitDx=0;exitDy=0;" edge="1" parent="1" source="m83ukutckXuz09UaQkiv-13" target="m83ukutckXuz09UaQkiv-20">
          <mxGeometry relative="1" as="geometry">
            <mxPoint x="182" y="490" as="targetPoint" />
            <mxPoint x="181" y="450" as="sourcePoint" />
          </mxGeometry>
        </mxCell>
        <mxCell id="m83ukutckXuz09UaQkiv-25" style="edgeStyle=orthogonalEdgeStyle;rounded=0;orthogonalLoop=1;jettySize=auto;html=1;exitX=0.5;exitY=1;exitDx=0;exitDy=0;" edge="1" parent="1" source="m83ukutckXuz09UaQkiv-20">
          <mxGeometry relative="1" as="geometry">
            <mxPoint x="-5.941176470588289" y="575" as="targetPoint" />
            <Array as="points">
              <mxPoint x="181" y="555" />
              <mxPoint x="-6" y="555" />
            </Array>
          </mxGeometry>
        </mxCell>
        <mxCell id="m83ukutckXuz09UaQkiv-32" style="edgeStyle=orthogonalEdgeStyle;rounded=0;orthogonalLoop=1;jettySize=auto;html=1;entryX=0.605;entryY=0.013;entryDx=0;entryDy=0;entryPerimeter=0;" edge="1" parent="1" source="m83ukutckXuz09UaQkiv-20">
          <mxGeometry relative="1" as="geometry">
            <mxPoint x="210.50000000000023" y="591.3" as="targetPoint" />
          </mxGeometry>
        </mxCell>
        <mxCell id="m83ukutckXuz09UaQkiv-20" value="Enter the soft start&amp;nbsp;" style="whiteSpace=wrap;html=1;strokeWidth=2;rounded=1;arcSize=12;fillColor=#e1d5e7;strokeColor=#9673a6;" vertex="1" parent="1">
          <mxGeometry x="122" y="500" width="118" height="40" as="geometry" />
        </mxCell>
        <mxCell id="m83ukutckXuz09UaQkiv-29" value="" style="edgeStyle=orthogonalEdgeStyle;rounded=0;orthogonalLoop=1;jettySize=auto;html=1;entryX=0.5;entryY=0;entryDx=0;entryDy=0;" edge="1" parent="1" target="m83ukutckXuz09UaQkiv-28">
          <mxGeometry relative="1" as="geometry">
            <mxPoint x="-10.531176470588289" y="649.9999999999998" as="sourcePoint" />
            <mxPoint x="-10.59" y="665" as="targetPoint" />
            <Array as="points" />
          </mxGeometry>
        </mxCell>
        <mxCell id="m83ukutckXuz09UaQkiv-28" value="Send frame to ethernet Nano" style="whiteSpace=wrap;html=1;rounded=1;arcSize=6;fillColor=#e1d5e7;strokeColor=#9673a6;" vertex="1" parent="1">
          <mxGeometry x="-64" y="680" width="108" height="50" as="geometry" />
        </mxCell>
        <mxCell id="m83ukutckXuz09UaQkiv-43" style="edgeStyle=orthogonalEdgeStyle;rounded=0;orthogonalLoop=1;jettySize=auto;html=1;exitX=0.5;exitY=1;exitDx=0;exitDy=0;" edge="1" parent="1" source="m83ukutckXuz09UaQkiv-35">
          <mxGeometry relative="1" as="geometry">
            <mxPoint x="215" y="670" as="targetPoint" />
            <Array as="points">
              <mxPoint x="215" y="670" />
              <mxPoint x="215" y="670" />
            </Array>
          </mxGeometry>
        </mxCell>
        <mxCell id="m83ukutckXuz09UaQkiv-35" value="Receive data from Box&amp;nbsp;" style="whiteSpace=wrap;html=1;strokeWidth=2;fillColor=#e1d5e7;strokeColor=#9673a6;" vertex="1" parent="1">
          <mxGeometry x="160" y="590" width="110" height="40" as="geometry" />
        </mxCell>
        <mxCell id="m83ukutckXuz09UaQkiv-38" value="Write the data &lt;br&gt;received from box&amp;nbsp;" style="shape=parallelogram;html=1;strokeWidth=2;perimeter=parallelogramPerimeter;whiteSpace=wrap;rounded=1;arcSize=12;size=0.23;fillColor=#f8cecc;strokeColor=#b85450;" vertex="1" parent="1">
          <mxGeometry x="140" y="670" width="140" height="80" as="geometry" />
        </mxCell>
        <mxCell id="m83ukutckXuz09UaQkiv-53" value="" style="edgeStyle=orthogonalEdgeStyle;rounded=0;orthogonalLoop=1;jettySize=auto;html=1;exitX=0.5;exitY=1;exitDx=0;exitDy=0;" edge="1" parent="1" source="m83ukutckXuz09UaQkiv-28">
          <mxGeometry relative="1" as="geometry">
            <mxPoint x="170" y="230" as="targetPoint" />
            <mxPoint x="4" y="710" as="sourcePoint" />
            <Array as="points">
              <mxPoint x="4" y="730" />
              <mxPoint x="4" y="790" />
              <mxPoint x="-110" y="790" />
              <mxPoint x="-110" y="230" />
            </Array>
          </mxGeometry>
        </mxCell>
        <mxCell id="m83ukutckXuz09UaQkiv-55" style="edgeStyle=orthogonalEdgeStyle;rounded=0;orthogonalLoop=1;jettySize=auto;html=1;exitX=0.5;exitY=1;exitDx=0;exitDy=0;" edge="1" parent="1" source="m83ukutckXuz09UaQkiv-54">
          <mxGeometry relative="1" as="geometry">
            <mxPoint x="175" y="240" as="targetPoint" />
          </mxGeometry>
        </mxCell>
        <mxCell id="m83ukutckXuz09UaQkiv-54" value="&lt;br&gt;&lt;span style=&quot;color: rgb(0, 0, 0); font-family: Helvetica; font-size: 12px; font-style: normal; font-variant-ligatures: normal; font-variant-caps: normal; font-weight: 400; letter-spacing: normal; orphans: 2; text-align: center; text-indent: 0px; text-transform: none; widows: 2; word-spacing: 0px; -webkit-text-stroke-width: 0px; background-color: rgb(251, 251, 251); text-decoration-thickness: initial; text-decoration-style: initial; text-decoration-color: initial; float: none; display: inline !important;&quot;&gt;initialize the udp connection and joystick&lt;/span&gt;" style="verticalLabelPosition=middle;verticalAlign=middle;html=1;shape=process;whiteSpace=wrap;rounded=1;size=0.14;arcSize=6;labelPosition=center;align=center;fillColor=#fff2cc;strokeColor=#d6b656;" vertex="1" parent="1">
          <mxGeometry x="109" y="150" width="129" height="70" as="geometry" />
        </mxCell>
        <mxCell id="m83ukutckXuz09UaQkiv-56" value="Enter PID system" style="whiteSpace=wrap;html=1;strokeWidth=2;rounded=1;arcSize=12;fillColor=#e1d5e7;strokeColor=#9673a6;" vertex="1" parent="1">
          <mxGeometry x="120" y="330" width="120" height="60" as="geometry" />
        </mxCell>
        <mxCell id="m83ukutckXuz09UaQkiv-58" value="prepare communication frame" style="rounded=1;whiteSpace=wrap;html=1;absoluteArcSize=1;arcSize=14;strokeWidth=2;fillColor=#e1d5e7;strokeColor=#9673a6;" vertex="1" parent="1">
          <mxGeometry x="-70" y="580" width="120" height="70" as="geometry" />
        </mxCell>
        <mxCell id="m83ukutckXuz09UaQkiv-62" style="edgeStyle=orthogonalEdgeStyle;rounded=0;orthogonalLoop=1;jettySize=auto;html=1;exitX=0.5;exitY=0;exitDx=0;exitDy=0;" edge="1" parent="1" source="m83ukutckXuz09UaQkiv-60">
          <mxGeometry relative="1" as="geometry">
            <mxPoint x="180" y="310" as="targetPoint" />
            <Array as="points">
              <mxPoint x="420" y="520" />
              <mxPoint x="420" y="310" />
            </Array>
          </mxGeometry>
        </mxCell>
        <mxCell id="m83ukutckXuz09UaQkiv-63" value="" style="edgeStyle=orthogonalEdgeStyle;rounded=0;orthogonalLoop=1;jettySize=auto;html=1;exitX=0.5;exitY=1;exitDx=0;exitDy=0;" edge="1" parent="1" source="m83ukutckXuz09UaQkiv-38" target="m83ukutckXuz09UaQkiv-60">
          <mxGeometry relative="1" as="geometry">
            <mxPoint x="460" y="590" as="targetPoint" />
            <mxPoint x="210" y="750" as="sourcePoint" />
          </mxGeometry>
        </mxCell>
        <mxCell id="m83ukutckXuz09UaQkiv-60" value="Update data sent to PID&amp;nbsp;" style="rounded=1;whiteSpace=wrap;html=1;absoluteArcSize=1;arcSize=14;strokeWidth=2;fillColor=#e1d5e7;strokeColor=#9673a6;" vertex="1" parent="1">
          <mxGeometry x="370" y="580" width="100" height="70" as="geometry" />
        </mxCell>
        <mxCell id="m83ukutckXuz09UaQkiv-64" value="&lt;font color=&quot;#990000&quot; style=&quot;font-size: 20px;&quot;&gt;&lt;b&gt;Console chart&amp;nbsp;&lt;/b&gt;&lt;/font&gt;" style="text;html=1;align=center;verticalAlign=middle;resizable=0;points=[];autosize=1;strokeColor=none;fillColor=none;" vertex="1" parent="1">
          <mxGeometry x="109" y="20" width="160" height="40" as="geometry" />
        </mxCell>
      </root>
    </mxGraphModel>
  </diagram>
</mxfile>
